<svg width="40" height="40" viewBox="0 0 40 40" fill="none" xmlns="http://www.w3.org/2000/svg">
<path d="M20 2.5C16.3546 2.5043 12.8597 3.95434 10.282 6.53203C7.70434 9.10973 6.2543 12.6046 6.25 16.25C6.24563 19.229 7.21873 22.1272 9.02 24.5C9.02 24.5 9.395 24.9937 9.45625 25.065L20 37.5L30.5487 25.0588C30.6038 24.9925 30.98 24.5 30.98 24.5L30.9813 24.4963C32.7816 22.1245 33.7543 19.2277 33.75 16.25C33.7457 12.6046 32.2957 9.10973 29.718 6.53203C27.1403 3.95434 23.6454 2.5043 20 2.5ZM25.2625 17.1275L20.0038 22.5L14.7375 17.1275C14.1052 16.4746 13.7516 15.6014 13.7516 14.6925C13.7516 13.7836 14.1052 12.9104 14.7375 12.2575C15.0476 11.9388 15.4184 11.6854 15.828 11.5125C16.2377 11.3395 16.6778 11.2504 17.1225 11.2504C17.5672 11.2504 18.0073 11.3395 18.417 11.5125C18.8266 11.6854 19.1974 11.9388 19.5075 12.2575L20.0038 12.7638L20.495 12.2575C20.8051 11.9388 21.1759 11.6854 21.5855 11.5125C21.9952 11.3395 22.4353 11.2504 22.88 11.2504C23.3247 11.2504 23.7648 11.3395 24.1745 11.5125C24.5841 11.6854 24.9549 11.9388 25.265 12.2575C25.8973 12.9104 26.2509 13.7836 26.2509 14.6925C26.2509 15.6014 25.8973 16.4746 25.265 17.1275H25.2625Z" fill="#D7DF23"/>
</svg>
