<svg width="359" height="71" viewBox="0 0 359 71" fill="none" xmlns="http://www.w3.org/2000/svg">
<path d="M35.3067 62.033C20.584 62.033 8.64532 50.0984 8.64532 35.373C8.64532 20.649 20.584 8.71171 35.3067 8.71171C50.0307 8.71171 61.9667 20.649 61.9667 35.373C61.9667 50.0984 50.0307 62.033 35.3067 62.033ZM35.3067 0.409058C15.9987 0.409058 0.343994 16.0624 0.343994 35.373C0.343994 54.681 15.9987 70.3384 35.3067 70.3384C54.6173 70.3384 70.2693 54.681 70.2693 35.373C70.2693 16.0624 54.6173 0.409058 35.3067 0.409058Z" fill="#37BBED"/>
<path d="M29.2761 23.3104C30.2388 25.6171 28.8215 27.1371 26.8921 28.3744C25.7001 29.1478 24.2668 29.6837 22.7068 31.1864C19.5201 34.2437 17.6855 39.2211 19.5748 44.5837C19.5588 44.5664 19.3001 44.4198 18.7801 43.6718C14.0921 36.8531 14.3588 27.8584 22.0455 21.5798C23.8615 20.4878 24.7401 20.6198 25.7495 20.7651C26.6761 20.8798 28.5655 21.5918 29.2761 23.3104Z" fill="#37BBED"/>
<path d="M46.7312 29.3364C44.4485 30.3071 42.9299 28.915 41.6779 26.9764C40.9099 25.7844 40.3539 24.3484 38.8485 22.795C35.7899 19.611 30.8192 17.8177 25.5072 19.7564C25.5072 19.7564 25.6619 19.475 26.3979 18.9497C33.1552 14.1737 42.0859 14.3737 48.3885 22.047C49.5032 23.867 49.3765 24.7524 49.2445 25.7657C49.1285 26.703 48.4392 28.6031 46.7312 29.3364Z" fill="#37BBED"/>
<path d="M23.4622 40.6437C25.7489 39.6597 27.2756 41.0544 28.5383 42.9877C29.3089 44.173 29.8609 45.6011 31.3756 47.1571C34.4489 50.3291 39.4289 52.0971 44.7302 50.1317C44.7302 50.1171 44.5849 50.4171 43.8516 50.9384C37.1156 55.7491 28.1783 55.5904 21.8409 47.9357C20.7089 46.125 20.8396 45.2371 20.9716 44.2237C21.0782 43.2931 21.7529 41.3864 23.4622 40.6437Z" fill="#37BBED"/>
<path d="M41.1361 46.2167C40.1121 43.946 41.4708 42.3807 43.3828 41.0833C44.5388 40.286 45.9588 39.6994 47.4761 38.1634C50.5774 35.0207 52.2574 29.9834 50.2308 24.674C50.2441 24.6887 50.5041 24.8314 51.0401 25.574C55.9361 32.2554 55.9134 41.2434 48.4054 47.7367C46.6241 48.8927 45.7375 48.778 44.7268 48.6674C43.8028 48.5767 41.8814 47.926 41.1361 46.2167Z" fill="#37BBED"/>
<path d="M31.2305 35.1007C31.2305 37.2381 32.9612 38.9661 35.0905 38.9661C37.2212 38.9661 38.9452 37.2381 38.9452 35.1007C38.9452 32.9554 37.2212 31.2234 35.0905 31.2234C32.9612 31.2234 31.2305 32.9554 31.2305 35.1007Z" fill="#37BBED"/>
<path d="M104.201 50.6971C105.76 50.0664 107.157 49.0637 108.389 47.6904V37.7237L100.7 38.4104C97.7505 38.697 95.5932 39.405 94.2332 40.537C92.8732 41.669 92.1945 43.2504 92.1945 45.2837C92.1945 47.345 92.8012 48.921 94.0185 50.009C95.2372 51.0984 97.0199 51.6424 99.3679 51.6424C101.028 51.6424 102.64 51.3277 104.201 50.6971ZM110.623 13.0011C113.572 14.1891 115.771 16.1437 117.217 18.865C118.663 21.585 119.388 25.281 119.388 29.9477V58.8157H110.064L109.291 53.9611H108.689C107.285 55.8237 105.475 57.233 103.255 58.193C101.036 59.153 98.5785 59.6317 95.8879 59.6317C92.8239 59.6317 90.1745 59.0877 87.9412 57.9997C85.7065 56.9117 83.9945 55.3717 82.8065 53.3824C81.6185 51.3917 81.0239 49.0504 81.0239 46.3571C81.0239 42.0051 82.5132 38.6397 85.4932 36.2624C88.4705 33.8864 93.1825 32.4397 99.6265 31.9237L108.389 31.1077V29.261C108.389 26.8837 108.008 25.0144 107.252 23.6544C106.491 22.2944 105.304 21.3277 103.685 20.7544C102.067 20.1811 99.8972 19.8957 97.1772 19.8957C95.2572 19.8957 93.1825 20.0597 90.9479 20.3904C88.7132 20.7197 86.5665 21.213 84.5052 21.8717V13.2371C86.6225 12.5784 88.9919 12.077 91.6145 11.733C94.2332 11.3904 96.7185 11.2184 99.0665 11.2184C103.82 11.2184 107.673 11.8117 110.623 13.0011Z" fill="#37BBED"/>
<path d="M131.241 53.6815C127.318 49.6881 125.357 43.6081 125.357 35.4455C125.357 27.2268 127.445 21.1348 131.628 17.1668C135.809 13.2015 141.924 11.2175 149.972 11.2175C153.608 11.2175 157.002 11.5908 160.153 12.3348V21.3562C157.03 20.6975 154.125 20.3682 151.433 20.3682C148.081 20.3682 145.346 20.8708 143.226 21.8722C141.106 22.8748 139.532 24.4708 138.502 26.6615C137.47 28.8522 136.954 31.7375 136.954 35.3188C136.954 40.7308 138.036 44.6175 140.197 46.9815C142.36 49.3428 145.676 50.5255 150.142 50.5255C151.604 50.5255 153.129 50.3895 154.718 50.1162C156.308 49.8442 158.12 49.4228 160.153 48.8495V57.8722C156.486 59.0735 152.592 59.6748 148.468 59.6748C140.908 59.6748 135.165 57.6775 131.241 53.6815Z" fill="#37BBED"/>
<path d="M168.895 55.3585C166.075 52.5079 164.663 48.0185 164.663 41.8892V11.9478H175.919V41.2025C175.919 44.3252 176.569 46.5519 177.872 47.8825C179.176 49.2159 181.031 49.8812 183.436 49.8812C185.241 49.8812 187.052 49.4798 188.871 48.6772C190.689 47.8758 192.2 46.6879 193.404 45.1119V11.9478H204.657V58.8158H195.337L194.563 53.9612H194.047C192.215 55.8238 190.137 57.2332 187.817 58.1932C185.499 59.1532 183.036 59.6318 180.429 59.6318C175.561 59.6318 171.716 58.2079 168.895 55.3585Z" fill="#37BBED"/>
<path d="M274.378 15.4926C277.07 18.342 278.416 22.846 278.416 29.002V58.8153H267.204V29.6033C267.204 26.5113 266.58 24.298 265.336 22.966C264.09 21.634 262.35 20.9686 260.115 20.9686C258.511 20.9686 256.936 21.3127 255.391 22.0007C253.843 22.6873 252.511 23.746 251.396 25.1793C251.51 26.1247 251.567 27.298 251.567 28.702V58.8153H240.527V29.6033C240.527 26.482 239.939 24.2633 238.766 22.946C237.591 21.6286 235.887 20.9686 233.654 20.9686C231.934 20.9686 230.259 21.3766 228.627 22.1926C226.995 23.0113 225.632 24.2207 224.546 25.8233V58.8153H213.291V11.9487H222.614L223.386 16.9313H223.987C225.676 15.0406 227.646 13.6167 229.894 12.6567C232.143 11.6967 234.598 11.218 237.263 11.218C239.895 11.218 242.231 11.7273 244.264 12.742C246.296 13.7593 247.931 15.342 249.162 17.49C251.138 15.342 253.35 13.7593 255.798 12.742C258.247 11.7273 260.76 11.218 263.339 11.218C268.004 11.218 271.686 12.6433 274.378 15.4926Z" fill="#37BBED"/>
<path d="M307.35 50.6971C308.909 50.0664 310.306 49.0637 311.54 47.6904V37.7237L303.849 38.4104C300.9 38.697 298.742 39.405 297.382 40.537C296.022 41.669 295.344 43.2504 295.344 45.2837C295.344 47.345 295.95 48.921 297.169 50.009C298.386 51.0984 300.169 51.6424 302.517 51.6424C304.177 51.6424 305.79 51.3277 307.35 50.6971ZM313.772 13.0011C316.721 14.1891 318.92 16.1437 320.366 18.865C321.812 21.585 322.537 25.281 322.537 29.9477V58.8157H313.213L312.44 53.9611H311.838C310.434 55.8237 308.624 57.233 306.405 58.193C304.185 59.153 301.729 59.6317 299.037 59.6317C295.973 59.6317 293.324 59.0877 291.092 57.9997C288.856 56.9117 287.144 55.3717 285.957 53.3824C284.768 51.3917 284.173 49.0504 284.173 46.3571C284.173 42.0051 285.662 38.6397 288.642 36.2624C291.62 33.8864 296.332 32.4397 302.776 31.9237L311.54 31.1077V29.261C311.54 26.8837 311.157 25.0144 310.401 23.6544C309.64 22.2944 308.453 21.3277 306.834 20.7544C305.217 20.1811 303.046 19.8957 300.326 19.8957C298.406 19.8957 296.332 20.0597 294.098 20.3904C291.862 20.7197 289.716 21.213 287.654 21.8717V13.2371C289.773 12.5784 292.142 12.077 294.764 11.733C297.382 11.3904 299.868 11.2184 302.216 11.2184C306.969 11.2184 310.822 11.8117 313.772 13.0011Z" fill="#37BBED"/>
<path d="M330.738 11.9484H340.017L340.877 18.0484H341.478C342.853 15.843 344.665 14.1817 346.913 13.0657C349.161 11.9484 351.63 11.3897 354.324 11.3897C355.554 11.3897 356.798 11.4897 358.061 11.691V21.915C356.944 21.715 355.482 21.6137 353.68 21.6137C351.445 21.6137 349.246 22.0724 347.085 22.9884C344.921 23.9057 343.225 25.207 341.994 26.8977V58.8151H330.738V11.9484Z" fill="#37BBED"/>
</svg>
